<?xml version="1.0" standalone="no"?>
<!DOCTYPE svg PUBLIC "-//W3C//DTD SVG 20010904//EN"
 "http://www.w3.org/TR/2001/REC-SVG-20010904/DTD/svg10.dtd">
<svg version="1.0" xmlns="http://www.w3.org/2000/svg"
 width="4168.000000pt" height="4168.000000pt" viewBox="0 0 4168.000000 4168.000000"
 preserveAspectRatio="xMidYMid meet">
<metadata>
Created by potrace 1.14, written by Peter Selinger 2001-2017
</metadata>
<g transform="translate(0.000000,4168.000000) scale(0.100000,-0.100000)"
fill="#000000" stroke="none">
<path d="M20150 35440 c-1568 -67 -3092 -377 -4540 -925 -1048 -397 -2116
-957 -3041 -1596 -1334 -921 -2512 -2066 -3466 -3370 -662 -906 -1221 -1899
-1660 -2948 -754 -1803 -1128 -3766 -1099 -5760 4 -256 10 -488 14 -515 l7
-49 337 271 336 270 189 -176 c304 -284 1992 -1891 2178 -2072 94 -92 249
-240 345 -330 96 -90 422 -398 724 -684 302 -287 552 -522 556 -524 4 -1 87
228 185 510 296 855 1238 3568 1329 3829 72 208 359 1035 974 2809 201 579
724 2081 877 2515 75 215 158 450 183 523 l47 134 68 55 c38 30 71 53 73 50 3
-3 -29 -126 -70 -273 -42 -147 -75 -269 -73 -270 1 -2 347 273 767 611 421
338 767 615 770 615 8 -1 871 -2024 1236 -2898 91 -217 301 -714 468 -1105
689 -1615 1561 -3670 2434 -5737 409 -969 413 -980 407 -989 -2 -5 -340 -278
-750 -607 -409 -329 -741 -601 -737 -605 6 -5 716 -30 858 -29 40 0 62 17 460
336 295 237 420 332 425 322 4 -7 26 -58 49 -113 23 -55 46 -104 50 -108 4 -5
31 86 59 201 l53 209 971 780 c535 429 1157 929 1384 1111 227 182 410 325
408 319 -3 -7 -74 -295 -159 -642 -85 -346 -248 -1006 -361 -1465 -114 -459
-208 -853 -210 -875 -2 -22 -224 -929 -494 -2015 -270 -1086 -627 -2522 -792
-3190 -166 -668 -307 -1220 -313 -1227 -8 -9 -15 -9 -27 0 -10 7 -250 571
-534 1252 -285 682 -881 2113 -1326 3179 -465 1114 -807 1946 -804 1956 3 10
-48 145 -116 306 -67 159 -201 480 -299 714 -98 234 -300 718 -450 1075 -423
1011 -1463 3505 -1825 4380 -180 435 -410 985 -511 1224 -101 238 -184 438
-184 444 0 6 -2 8 -5 6 -2 -3 -60 -185 -129 -405 -68 -219 -163 -523 -211
-674 -106 -334 -130 -414 -335 -1080 -89 -289 -226 -734 -305 -990 -79 -256
-218 -708 -310 -1005 -92 -297 -292 -945 -445 -1440 -451 -1459 -567 -1839
-567 -1860 0 -11 -38 -144 -86 -295 -47 -151 -190 -610 -317 -1020 -443 -1424
-471 -1514 -473 -1516 -4 -2 -1600 25 -1602 28 -3 5 -478 547 -799 913 -392
445 -1492 1700 -2538 2894 -460 525 -835 957 -833 959 2 2 13 -1 24 -8 33 -17
25 -3 -39 69 -33 37 -60 74 -60 81 0 7 -2 11 -5 8 -7 -6 77 -506 126 -752 175
-875 439 -1759 774 -2581 255 -629 550 -1229 888 -1810 1302 -2237 3186 -4086
5447 -5347 1783 -994 3731 -1587 5770 -1757 471 -40 646 -46 1235 -46 674 0
1020 18 1600 81 1471 160 2912 550 4270 1154 208 92 813 394 1030 513 1534
842 2885 1937 4022 3259 224 261 263 312 263 342 0 18 29 62 93 144 1429 1800
2432 4030 2837 6307 22 127 43 244 46 260 4 20 3 27 -4 20 -6 -5 -594 -710
-1309 -1566 -1961 -2350 -3133 -3753 -3822 -4572 -55 -66 -67 -76 -73 -60 -7
17 -128 543 -529 2293 -456 1992 -478 2088 -478 2120 1 22 -142 651 -637 2815
-237 1033 -514 2266 -514 2283 1 10 182 162 433 363 238 190 639 512 892 716
l460 369 128 -575 c71 -317 198 -891 282 -1276 191 -866 1124 -5117 1133
-5165 8 -34 24 -14 2102 2555 1681 2078 2095 2584 2101 2569 13 -36 -21 522
-52 831 -276 2809 -1356 5434 -3138 7635 -428 528 -955 1088 -1448 1539 -119
108 -199 189 -196 196 7 20 -369 337 -732 617 -474 366 -1068 761 -1600 1066
-342 196 -849 461 -860 450 -3 -3 34 -192 84 -419 49 -228 122 -560 160 -739
39 -179 124 -570 191 -870 243 -1096 693 -3136 884 -4010 665 -3039 817 -3745
809 -3757 -9 -14 -1775 -1433 -1783 -1433 -3 0 -61 242 -128 538 -68 295 -164
713 -213 927 -102 443 -469 2043 -654 2850 -68 297 -147 646 -176 775 -29 129
-55 238 -59 242 -3 4 -183 -707 -400 -1580 -685 -2758 -1577 -6332 -1581
-6335 -2 -2 -622 -500 -1377 -1106 -756 -606 -1376 -1101 -1378 -1098 -2 2 66
287 150 633 85 346 311 1264 501 2039 190 776 432 1759 536 2185 205 835 1038
4217 1454 5900 140 569 318 1292 396 1605 277 1126 742 3012 898 3640 l158
640 29 -2 c68 -6 -422 157 -806 267 -1033 297 -2062 470 -3210 540 -226 14
-1119 20 -1370 10z m-4840 -6201 c-252 -845 -341 -1142 -381 -1265 l-39 -121
-61 -48 c-53 -42 -60 -45 -54 -24 9 28 286 834 511 1481 87 252 159 456 161
454 2 -2 -60 -217 -137 -477z"/>
</g>
</svg>
